PathFileType	4	(X/Y/Z)	62_2_63_p1_0-195_filt_butterworth.trc
DataRate	CameraRate	NumFrames	NumMarkers	Units	OrigDataRate	OrigDataStartFrame	OrigNumFrames
40.0	40.0	5	27	m	40.0	146	195
Frame#	Time	RHip			RKnee			RAnkle			RBigToe			RSmallToe			RHeel			LHip			LKnee			LAnkle			LBigToe			LSmallToe			LHeel			Neck			Head			Nose			RShoulder			RElbow			RWrist			RThumb			RIndex			RPinky			LShoulder			LElbow			LWrist			LThumb			LIndex			LPinky			
		X1	Y1	Z1	X2	Y2	Z2	X3	Y3	Z3	X4	Y4	Z4	X5	Y5	Z5	X6	Y6	Z6	X7	Y7	Z7	X8	Y8	Z8	X9	Y9	Z9	X10	Y10	Z10	X11	Y11	Z11	X12	Y12	Z12	X13	Y13	Z13	X14	Y14	Z14	X15	Y15	Z15	X16	Y16	Z16	X17	Y17	Z17	X18	Y18	Z18	X19	Y19	Z19	X20	Y20	Z20	X21	Y21	Z21	X22	Y22	Z22	X23	Y23	Z23	X24	Y24	Z24	X25	Y25	Z25	X26	Y26	Z26	X27	Y27	Z27	
146	3.65	0.30682110403704826	0.2718458040585978	0.6727183686715016	0.31390017422616767	-0.09098500627965628	0.7827860551482385	0.3450666274200105	-0.49563031979648864	0.9027767332037243	0.2795934709601262	-0.5644703666523933	0.7477739812302094	0.3492059500259597	-0.546028056194475	0.7344693375961606	0.33778746678449556	-0.5674921438025625	0.9876424078129723	0.12234128201856413	0.26865528659775206	0.8059061932246818	0.14370250310648477	-0.1016723439198231	0.8673950393757841	0.14712499090713008	-0.47795383374674544	0.9241058893817111	0.1124257933630029	-0.5424693598817686	0.7485643492681867	0.07333838154894524	-0.5396582181329114	0.8201933274957681	0.1821284923328068	-0.5398957757034399	0.9819309382493411	0.27800409902556444	0.8579291534607695	0.6085800758310537	0.3233003172258121	1.0859054346092027	0.5474820319373827	0.2779957184864965	0.9636670183502353	0.47433918621731935	0.4032524721791787	0.7300039796063592	0.5374622716520091	0.38605108690759926	0.4908498184753907	0.5024410081717038	0.15547978366480325	0.4318006053635715	0.4994021715516331	0.05693862860317443	0.41045862165948066	0.5765815331381963	0.0418825492453614	0.38516175014597176	0.5527783098670543	0.0752741664017199	0.34194358068629827	0.5574827450327147	0.1372655584850492	0.7987015943536933	0.7142136084828202	0.05902259605108798	0.5152393195447126	0.7170451808340199	-0.03320113414587443	0.27545261920705416	0.7500860815973198	-0.05912712142471348	0.19666986728530306	0.7388144045463114	-0.0823779023307343	0.1663294342481903	0.7488767629332926	-0.05967475836897663	0.16963330380016461	0.7409422123675498	
147	3.675	0.3081734126464688	0.270687483700513	0.6755643932987516	0.3148600176453104	-0.09215419357838606	0.7845733970636981	0.3451535815370443	-0.4966403314798816	0.9022584401047468	0.27949704013360366	-0.5631525511854529	0.7462623778927043	0.3493072432598671	-0.5473273490564494	0.735932495601325	0.3379767040370682	-0.5683516627679751	0.9878193022765563	0.12243286230028744	0.26779450765167	0.8055795487615286	0.14373931786003416	-0.10216500932289924	0.8670995988426962	0.1471517811489822	-0.47804215774880787	0.9235127835070978	0.11165665836351474	-0.5399936344912079	0.7430100125344464	0.073218652347757	-0.5384973502609666	0.8195927758024905	0.18207608581001247	-0.5401743612338421	0.9826531333853797	0.27889487661970513	0.8579319086779941	0.6087540868826283	0.32307336661839847	1.0865151790960403	0.5470116426929647	0.2781181087125178	0.9635898584311992	0.4731653679813693	0.4037988653421207	0.7303055038089454	0.5381694024174588	0.38824265066890296	0.49150613030397344	0.5050039762958735	0.16678340861721408	0.4091758983183249	0.49421273512545133	0.06708148077868968	0.3689508921792256	0.5692624176324979	0.058093754250887364	0.3487305288571303	0.5498953980691061	0.09027876248379751	0.31349493537060935	0.5502470929992858	0.13689820268104297	0.7978905910022864	0.7165298751540823	0.06062739892996197	0.5102133978206244	0.7185527143059984	-0.021957354542327	0.273837051859697	0.7504572755769237	-0.043486403193191275	0.1970237001132003	0.7239686641576699	-0.06647622568339984	0.16057692905337062	0.7374838016212668	-0.04731456227979289	0.16254575500717566	0.7415938478580004	
148	3.7	0.30993966279697444	0.26971567844853983	0.6789804719929042	0.31608977606861177	-0.09355037167820301	0.7868824285146666	0.34527808620413697	-0.497849450540468	0.9024455773972516	0.27952711205906283	-0.5609604258527892	0.7432795536359428	0.34935271794386824	-0.5486364376333084	0.737009629528872	0.3380567421057285	-0.5691705368791805	0.9881083387454798	0.12252846006718554	0.2675816107725656	0.8037675564518929	0.14372138931790665	-0.10241554860585289	0.866998249457535	0.14700306300092222	-0.47815977880183635	0.9233427344086077	0.11082214820408519	-0.5375074410333643	0.7375293296077683	0.07327198782298035	-0.5376177014972493	0.8192536992222442	0.18167367583980792	-0.5400042802722874	0.9827800859230491	0.2797518594620288	0.8574421839011316	0.6087106749709915	0.3229602398756942	1.0867715059060306	0.5466809577951087	0.278173634475901	0.9636175179353497	0.4731263050969514	0.40463401379673225	0.7303096897917891	0.5392583531037576	0.3908582520289816	0.4904641464718251	0.5080477969220383	0.1795016695741184	0.38470871888936276	0.488702919441565	0.07878502275144121	0.3284176276825562	0.5594521857762966	0.07615613517429079	0.31257231084018655	0.5450385275045719	0.10769408341851668	0.28509654992857925	0.5399651329520725	0.13674467461151396	0.7975442448190476	0.7177372235035204	0.060781366171107354	0.5084735216582212	0.7202789309858255	-0.01425403344949083	0.2740915423339401	0.745160698937877	-0.03199758141859077	0.19939820142601322	0.7055463413016189	-0.053972035214389896	0.1580911321995741	0.7190723473125407	-0.039810662631568905	0.15730170739141114	0.7402663278773227	
149	3.725	0.3119547248953505	0.2691123478149785	0.6824369416527751	0.317464978559346	-0.09482226427829105	0.7894746832687486	0.34522002749291963	-0.4988512241414639	0.903010527956902	0.27952204774830247	-0.5591752768868277	0.7400818944344925	0.34922776536349054	-0.5496787636515946	0.737165446210903	0.3381317744363504	-0.5698836048570066	0.9885456639858433	0.12270654254259686	0.26794806196429355	0.8010496972344083	0.1436112882928976	-0.10216150529933077	0.8669765159348787	0.1466407322272243	-0.4782713331606907	0.9236489339478733	0.11001939414295947	-0.5352953703270102	0.7323505324434859	0.07343771653165734	-0.5375317982712736	0.8194082590940038	0.1810724250256886	-0.5393049933057364	0.9825156653752015	0.280421761939829	0.8569707239869904	0.6091241647207026	0.32290537895597204	1.0866690947393005	0.5464386575469237	0.2781902255782356	0.9636672001569218	0.47373048691378444	0.4060634782480361	0.7301816316776285	0.5418142541262875	0.39428525347355714	0.48780353275224986	0.5118688825749831	0.19309932001953062	0.360773373905519	0.4858942103791908	0.09003906139697299	0.2895232773248773	0.5482858148273331	0.09340985374922076	0.2773899777472878	0.5400202992505228	0.12828108143363656	0.25711624935750865	0.5291240465382772	0.1365562366180358	0.7976227632749076	0.7174108500168856	0.06041127297314375	0.5099472375861539	0.7210424973520307	-0.008890624071459892	0.2741014077050651	0.7363096393990015	-0.023718919812988088	0.20156340376812057	0.6872726034833845	-0.04412700191927338	0.15710501065225296	0.6982896418477672	-0.03567375370335454	0.15379995962920218	0.7384334140131248	
150	3.75	0.31406574387165986	0.2688785560624758	0.6852725978016364	0.318941412264073	-0.09578243800991398	0.7921804732262515	0.34488978802618814	-0.4997199984574876	0.9037595233683559	0.2791187447666017	-0.5579243577488975	0.7367049445882686	0.3490237923667111	-0.5505583902851331	0.7370483620529606	0.33829990950764044	-0.5705693440977064	0.989219248541929	0.1230649165500611	0.2688393843294351	0.7977665042937793	0.14338744468237474	-0.1015055506393826	0.8669410681736041	0.14619204362608682	-0.4783794189733779	0.9243475596244328	0.10928777533192141	-0.5333942536675932	0.7276175451380237	0.07360397347768113	-0.5379441109715483	0.8196844276395667	0.18050617763863055	-0.5383765951737586	0.982270858555714	0.2807211535715829	0.8572531103255444	0.6101581816093267	0.3230227643079203	1.0865594250247175	0.5464838779325816	0.2781999902755078	0.9637482961747972	0.4740539338535644	0.40770427787576413	0.7301692273450151	0.5450581186328638	0.39860881675535864	0.4844250217566268	0.5168805707775656	0.20787348862414418	0.33916366504242235	0.486212654383331	0.10057595274058112	0.2542088439784989	0.5375741164719178	0.10983147011075595	0.24483059067632448	0.5346454019212781	0.15131208408009342	0.23050636834462132	0.5191265563003825	0.13575238494511774	0.7978899886387588	0.7160086765948523	0.05936478967541752	0.513648730332809	0.7199576742861589	-0.006572925454254821	0.2745154007822843	0.7229092166353838	-0.017264706898276735	0.2031922857951343	0.6692529408656465	-0.036389972130306314	0.15708272246752902	0.6788370584001787	-0.033669119358118726	0.15222945531711884	0.7370711750837966	
